<?xml version="1.0" standalone="no"?>
<!DOCTYPE svg PUBLIC "-//W3C//DTD SVG 20010904//EN"
 "http://www.w3.org/TR/2001/REC-SVG-20010904/DTD/svg10.dtd">
<svg version="1.0" xmlns="http://www.w3.org/2000/svg"
 width="2751.000000pt" height="2436.000000pt" viewBox="0 0 2751.000000 2436.000000"
 preserveAspectRatio="xMidYMid meet">

<g transform="translate(0.000000,2436.000000) scale(0.100000,-0.100000)"
fill="#000000" stroke="none">
<path d="M13790 23559 c-2308 -84 -4528 -892 -6344 -2308 -383 -298 -660 -544
-1026 -911 -291 -290 -443 -456 -669 -726 -1421 -1702 -2290 -3773 -2505
-5974 -69 -704 -69 -1456 0 -2160 215 -2201 1084 -4272 2505 -5974 226 -270
378 -436 669 -726 290 -291 456 -443 726 -669 1512 -1263 3319 -2092 5252
-2410 1192 -197 2412 -197 3604 0 1933 318 3740 1147 5252 2410 270 226 436
378 726 669 291 290 443 456 669 726 1421 1702 2290 3773 2505 5974 69 704 69
1456 0 2160 -215 2201 -1084 4272 -2505 5974 -226 270 -378 436 -669 726 -290
291 -456 443 -726 669 -1288 1076 -2777 1832 -4405 2236 -987 245 -2027 352
-3059 314z m4570 -3903 l0 -1465 -802 -4 c-773 -3 -806 -4 -896 -24 -279 -64
-465 -165 -658 -357 -191 -190 -286 -361 -360 -646 -15 -57 -18 -141 -21 -657
l-4 -593 1370 0 1371 0 0 -1470 0 -1470 -1370 0 -1370 0 0 -4515 0 -4515
-1930 0 -1930 0 0 4515 0 4515 -1237 2 -1238 3 0 1465 0 1465 1237 3 1237 2 3
1023 c4 996 5 1026 26 1176 60 414 147 705 316 1056 333 693 886 1252 1574
1594 412 204 765 302 1282 354 19 2 792 5 1718 5 l1682 2 0 -1464z"/>
</g>
</svg>
